<?xml version="1.0" standalone="no"?>
<!DOCTYPE svg PUBLIC "-//W3C//DTD SVG 20010904//EN"
 "http://www.w3.org/TR/2001/REC-SVG-20010904/DTD/svg10.dtd">
<svg version="1.0" xmlns="http://www.w3.org/2000/svg"
 width="225.000000pt" height="225.000000pt" viewBox="0 0 225.000000 225.000000"
 preserveAspectRatio="xMidYMid meet">

<g transform="translate(0.000000,225.000000) scale(0.100000,-0.100000)"
fill="#000000" stroke="none">
<path d="M1010 2176 c-224 -50 -405 -179 -499 -356 -42 -79 -87 -221 -102
-320 -31 -212 25 -398 198 -656 139 -207 163 -274 162 -454 0 -80 -6 -126 -25
-195 -13 -49 -27 -101 -31 -114 -3 -14 -1 -26 8 -32 8 -5 185 -9 394 -9 l380
0 2 66 c3 85 26 173 66 254 l32 65 95 5 c52 3 101 9 109 14 26 17 51 90 51
153 l0 61 45 26 c52 31 68 55 57 87 -6 16 -4 32 7 51 15 26 15 30 -1 58 l-17
29 55 16 c67 19 88 46 74 96 -13 46 -60 119 -124 192 -49 57 -51 61 -49 116 0
31 11 83 22 115 49 139 5 324 -111 463 -100 121 -270 225 -428 263 -98 23
-279 26 -370 6z m315 -31 c225 -39 437 -189 528 -373 37 -76 42 -92 45 -176 3
-73 0 -105 -17 -160 -22 -72 -27 -140 -12 -178 5 -13 34 -52 64 -86 64 -73
113 -161 104 -185 -3 -9 -31 -23 -64 -33 -32 -9 -64 -22 -72 -30 -13 -12 -12
-17 7 -37 28 -29 28 -44 0 -67 -22 -17 -22 -19 -5 -37 26 -29 22 -38 -33 -72
-27 -17 -50 -34 -51 -38 0 -5 -2 -37 -3 -73 -2 -36 -9 -79 -17 -95 -14 -30
-15 -30 -109 -33 -72 -2 -99 -7 -113 -20 -49 -44 -117 -239 -117 -334 l0 -38
-356 0 c-335 0 -356 1 -349 17 48 122 66 309 41 433 -22 109 -55 179 -153 326
-101 149 -146 239 -179 355 -24 83 -26 103 -22 213 5 104 11 137 42 231 46
140 93 220 181 304 169 161 412 229 660 186z"/>
<path d="M1331 1791 l-125 -119 18 -26 c16 -26 16 -28 -4 -53 -24 -30 -26 -63
-6 -102 30 -58 114 -84 154 -48 18 16 20 16 37 -3 26 -29 59 -25 89 11 27 32
25 51 -8 79 -25 20 -19 56 15 84 38 33 69 33 99 1 13 -14 29 -25 36 -25 22 0
74 51 74 72 0 30 -206 248 -234 248 -13 0 -66 -44 -145 -119z m339 -127 c0 -6
-7 -17 -15 -24 -13 -11 -18 -10 -28 3 -36 48 -116 38 -167 -20 -26 -29 -31
-41 -26 -66 4 -17 15 -41 26 -52 20 -21 20 -22 2 -38 -18 -16 -20 -16 -37 3
-21 24 -57 26 -75 5 -37 -44 -131 25 -110 81 5 12 15 24 24 27 21 8 21 51 0
68 -15 12 -4 25 97 121 l114 108 97 -103 c54 -56 97 -107 98 -113z"/>
<path d="M774 1662 c-8 -5 -14 -120 -19 -366 -6 -296 -5 -360 6 -367 18 -11
650 -11 667 -1 9 7 12 50 10 183 l-3 174 -26 3 c-20 2 -28 11 -35 40 -24 98
-214 90 -214 -10 0 -21 -5 -28 -20 -28 -16 0 -20 7 -20 38 0 47 -14 62 -57 62
-49 0 -77 32 -68 78 11 61 29 80 77 84 43 3 43 3 46 46 5 70 1 72 -177 72 -86
0 -161 -4 -167 -8z m306 -52 c0 -12 -7 -20 -17 -20 -36 0 -81 -38 -92 -77 -26
-91 -1 -145 73 -158 33 -7 36 -10 36 -41 0 -31 -3 -34 -29 -34 -37 0 -53 -20
-45 -57 8 -42 -10 -71 -49 -78 -68 -13 -110 28 -88 86 12 34 3 47 -39 51 l-35
3 -3 173 -2 172 145 0 c138 0 145 -1 145 -20z m243 -262 c9 -7 17 -29 19 -48
3 -31 6 -35 36 -38 l33 -3 -3 -152 -3 -152 -145 0 c-143 0 -145 0 -148 23 -3
18 1 22 26 22 56 0 102 61 102 136 0 38 -31 64 -85 72 -41 6 -50 11 -50 27 0
16 8 21 35 23 38 3 62 25 53 48 -3 8 3 24 12 34 21 23 91 27 118 8z m-491
-141 c-5 -57 19 -86 75 -94 85 -11 133 20 133 87 0 29 4 40 15 40 9 0 15 -9
15 -25 0 -25 32 -51 50 -40 6 4 26 1 45 -5 32 -10 35 -15 35 -49 0 -52 -23
-81 -64 -81 -39 0 -53 -13 -58 -55 l-3 -30 -145 0 -145 0 -3 148 -3 147 28 0
c27 0 28 -2 25 -43z"/>
</g>
</svg>
